<svg width="1024" height="1024" viewBox="0 0 1024 1024" fill="none" xmlns="http://www.w3.org/2000/svg">
<rect width="1024" height="1024" fill="#171619"/>
<path fill-rule="evenodd" clip-rule="evenodd" d="M129.693 560.512C132.24 562.022 135.36 562.368 139.051 561.549L251.763 536.562C255.455 535.743 258.136 534.112 259.806 531.667C261.477 529.222 262.021 526.681 261.436 524.044C260.852 521.408 259.285 519.334 256.738 517.825C254.19 516.315 251.071 515.969 247.38 516.787L134.667 541.775C130.976 542.593 128.295 544.225 126.624 546.67C124.953 549.115 124.41 551.656 124.994 554.293C125.579 556.929 127.145 559.002 129.693 560.512ZM124.081 535.201C126.629 536.711 129.748 537.057 133.44 536.238L170.219 528.085C173.911 527.266 176.592 525.635 178.262 523.189C179.933 520.744 180.477 518.204 179.892 515.567C179.308 512.931 177.741 510.857 175.194 509.348C172.646 507.838 169.527 507.492 165.836 508.31L129.056 516.464C125.365 517.283 122.684 518.914 121.013 521.359C119.342 523.804 118.799 526.345 119.383 528.982C119.968 531.618 121.534 533.691 124.081 535.201ZM225.325 512.756C227.873 514.266 230.992 514.612 234.683 513.793L271.463 505.639C275.154 504.821 277.835 503.189 279.506 500.744C281.177 498.299 281.72 495.759 281.136 493.122C280.551 490.485 278.985 488.412 276.437 486.902C273.89 485.393 270.77 485.047 267.079 485.865L230.299 494.019C226.608 494.837 223.927 496.469 222.256 498.914C220.585 501.359 220.042 503.9 220.627 506.536C221.211 509.173 222.777 511.246 225.325 512.756ZM118.47 509.89C121.018 511.4 124.137 511.746 127.828 510.928L164.608 502.774C168.299 501.955 170.98 500.324 172.651 497.879C174.322 495.434 174.865 492.893 174.281 490.256C173.696 487.62 172.13 485.546 169.583 484.037C167.035 482.527 163.915 482.181 160.224 482.999L123.444 491.153C119.753 491.972 117.072 493.603 115.401 496.048C113.731 498.493 113.187 501.034 113.772 503.671C114.356 506.307 115.922 508.38 118.47 509.89ZM219.714 487.445C222.261 488.955 225.381 489.301 229.072 488.482L265.852 480.328C269.543 479.51 272.224 477.878 273.895 475.433C275.566 472.988 276.109 470.448 275.524 467.811C274.94 465.175 273.374 463.101 270.826 461.592C268.279 460.082 265.159 459.736 261.468 460.554L224.688 468.708C220.997 469.527 218.316 471.158 216.645 473.603C214.974 476.048 214.431 478.589 215.015 481.226C215.6 483.862 217.166 485.935 219.714 487.445ZM112.859 484.579C115.406 486.089 118.526 486.435 122.217 485.617L234.93 460.629C238.621 459.811 241.302 458.179 242.973 455.734C244.643 453.289 245.187 450.748 244.602 448.111C244.018 445.475 242.452 443.402 239.904 441.892C237.356 440.382 234.237 440.036 230.546 440.855L117.833 465.842C114.142 466.661 111.461 468.292 109.79 470.737C108.119 473.182 107.576 475.723 108.161 478.36C108.745 480.996 110.311 483.07 112.859 484.579ZM107.247 459.268C109.795 460.778 112.914 461.124 116.606 460.306L153.386 452.152C157.077 451.333 159.758 449.702 161.429 447.257C163.099 444.812 163.643 442.271 163.058 439.634C162.474 436.998 160.908 434.925 158.36 433.415C155.812 431.905 152.693 431.559 149.002 432.378L112.222 440.532C108.531 441.35 105.85 442.982 104.179 445.427C102.508 447.872 101.965 450.412 102.549 453.049C103.134 455.685 104.7 457.759 107.247 459.268ZM208.491 436.823C211.039 438.333 214.158 438.679 217.849 437.861L254.629 429.707C258.32 428.888 261.001 427.257 262.672 424.812C264.343 422.367 264.886 419.826 264.302 417.189C263.717 414.553 262.151 412.48 259.604 410.97C257.056 409.46 253.937 409.114 250.245 409.932L213.465 418.086C209.774 418.905 207.093 420.536 205.422 422.981C203.752 425.426 203.208 427.967 203.793 430.604C204.377 433.24 205.943 435.313 208.491 436.823ZM101.636 433.958C104.184 435.467 107.303 435.813 110.994 434.995L147.774 426.841C151.465 426.023 154.146 424.391 155.817 421.946C157.488 419.501 158.031 416.96 157.447 414.324C156.862 411.687 155.296 409.614 152.749 408.104C150.201 406.594 147.082 406.248 143.39 407.067L106.611 415.221C102.919 416.039 100.238 417.671 98.5675 420.116C96.8966 422.561 96.3535 425.101 96.938 427.738C97.5225 430.375 99.0885 432.448 101.636 433.958ZM202.88 411.512C205.427 413.022 208.547 413.368 212.238 412.55L249.018 404.396C252.709 403.577 255.39 401.946 257.061 399.501C258.732 397.056 259.275 394.515 258.69 391.878C258.106 389.242 256.54 387.169 253.992 385.659C251.445 384.149 248.325 383.803 244.634 384.622L207.854 392.775C204.163 393.594 201.482 395.225 199.811 397.67C198.14 400.116 197.597 402.656 198.182 405.293C198.766 407.929 200.332 410.003 202.88 411.512ZM96.0249 408.647C98.5725 410.156 101.692 410.502 105.383 409.684L218.096 384.696C221.787 383.878 224.468 382.246 226.139 379.801C227.81 377.356 228.353 374.815 227.768 372.179C227.184 369.542 225.618 367.469 223.07 365.959C220.522 364.449 217.403 364.104 213.712 364.922L100.999 389.91C97.3081 390.728 94.6271 392.36 92.9562 394.805C91.2853 397.25 90.7422 399.791 91.3267 402.427C91.9112 405.064 93.4773 407.137 96.0249 408.647ZM340.526 516.883C336.834 517.702 333.715 517.356 331.167 515.846C328.62 514.336 327.054 512.263 326.469 509.627C325.885 506.99 326.428 504.449 328.099 502.004C329.77 499.559 332.451 497.928 336.142 497.109L423.543 477.733C427.235 476.914 430.354 477.26 432.902 478.77C435.449 480.28 437.015 482.353 437.6 484.99C438.184 487.626 437.641 490.167 435.97 492.612C434.3 495.057 431.618 496.689 427.927 497.507L340.526 516.883ZM309.603 497.184C305.912 498.002 302.793 497.656 300.245 496.147C297.698 494.637 296.132 492.564 295.547 489.927C294.963 487.29 295.506 484.75 297.177 482.305C298.847 479.86 301.528 478.228 305.22 477.41L342 469.256C345.691 468.437 348.81 468.783 351.358 470.293C353.905 471.803 355.471 473.876 356.056 476.513C356.64 479.149 356.097 481.69 354.426 484.135C352.756 486.58 350.074 488.212 346.383 489.03L309.603 497.184ZM410.847 474.739C407.156 475.557 404.036 475.211 401.489 473.701C398.941 472.192 397.375 470.118 396.791 467.482C396.206 464.845 396.749 462.305 398.42 459.859C400.091 457.414 402.772 455.783 406.463 454.965L443.243 446.811C446.934 445.992 450.054 446.338 452.601 447.848C455.149 449.358 456.715 451.431 457.3 454.067C457.884 456.704 457.341 459.245 455.67 461.69C453.999 464.135 451.318 465.766 447.627 466.585L410.847 474.739ZM303.992 471.873C300.301 472.691 297.182 472.345 294.634 470.836C292.086 469.326 290.52 467.253 289.936 464.616C289.351 461.98 289.894 459.439 291.565 456.994C293.236 454.549 295.917 452.917 299.608 452.099L336.388 443.945C340.079 443.127 343.199 443.472 345.746 444.982C348.294 446.492 349.86 448.565 350.445 451.202C351.029 453.838 350.486 456.379 348.815 458.824C347.144 461.269 344.463 462.901 340.772 463.719L303.992 471.873ZM405.236 449.428C401.545 450.246 398.425 449.9 395.878 448.391C393.33 446.881 391.764 444.808 391.179 442.171C390.595 439.534 391.138 436.994 392.809 434.549C394.48 432.104 397.161 430.472 400.852 429.654L437.632 421.5C441.323 420.681 444.442 421.027 446.99 422.537C449.538 424.047 451.104 426.12 451.688 428.756C452.273 431.393 451.73 433.934 450.059 436.379C448.388 438.824 445.707 440.456 442.016 441.274L405.236 449.428ZM298.381 446.562C294.69 447.38 291.57 447.035 289.023 445.525C286.475 444.015 284.909 441.942 284.324 439.305C283.74 436.669 284.283 434.128 285.954 431.683C287.625 429.238 290.306 427.606 293.997 426.788L330.777 418.634C334.468 417.816 337.587 418.161 340.135 419.671C342.683 421.181 344.249 423.254 344.833 425.891C345.418 428.527 344.875 431.068 343.204 433.513C341.533 435.958 338.852 437.59 335.161 438.408L298.381 446.562ZM399.624 424.117C395.933 424.935 392.814 424.589 390.266 423.08C387.719 421.57 386.153 419.497 385.568 416.86C384.984 414.224 385.527 411.683 387.198 409.238C388.868 406.793 391.549 405.161 395.241 404.343L432.021 396.189C435.712 395.37 438.831 395.716 441.379 397.226C443.926 398.736 445.492 400.809 446.077 403.446C446.661 406.082 446.118 408.623 444.447 411.068C442.777 413.513 440.096 415.145 436.404 415.963L399.624 424.117ZM292.77 421.251C289.078 422.069 285.959 421.724 283.411 420.214C280.864 418.704 279.298 416.631 278.713 413.994C278.129 411.358 278.672 408.817 280.343 406.372C282.014 403.927 284.695 402.295 288.386 401.477L325.166 393.323C328.857 392.505 331.976 392.85 334.524 394.36C337.071 395.87 338.638 397.943 339.222 400.58C339.807 403.216 339.263 405.757 337.592 408.202C335.922 410.647 333.241 412.279 329.549 413.097L292.77 421.251ZM394.013 398.806C390.322 399.624 387.203 399.278 384.655 397.769C382.107 396.259 380.541 394.186 379.957 391.549C379.372 388.913 379.915 386.372 381.586 383.927C383.257 381.482 385.938 379.85 389.629 379.032L426.409 370.878C430.1 370.06 433.22 370.405 435.767 371.915C438.315 373.425 439.881 375.498 440.466 378.135C441.05 380.771 440.507 383.312 438.836 385.757C437.165 388.202 434.484 389.834 430.793 390.652L394.013 398.806ZM287.158 395.94C283.467 396.759 280.348 396.413 277.8 394.903C275.252 393.393 273.686 391.32 273.102 388.683C272.517 386.047 273.061 383.506 274.731 381.061C276.402 378.616 279.083 376.984 282.774 376.166L319.554 368.012C323.246 367.194 326.365 367.54 328.913 369.049C331.46 370.559 333.026 372.632 333.611 375.269C334.195 377.905 333.652 380.446 331.981 382.891C330.31 385.336 327.629 386.968 323.938 387.786L287.158 395.94ZM388.402 373.495C384.711 374.313 381.591 373.968 379.044 372.458C376.496 370.948 374.93 368.875 374.345 366.238C373.761 363.602 374.304 361.061 375.975 358.616C377.646 356.171 380.327 354.539 384.018 353.721L420.798 345.567C424.489 344.749 427.609 345.094 430.156 346.604C432.704 348.114 434.27 350.187 434.854 352.824C435.439 355.46 434.896 358.001 433.225 360.446C431.554 362.891 428.873 364.523 425.182 365.341L388.402 373.495ZM306.858 365.018C303.167 365.836 300.047 365.491 297.5 363.981C294.952 362.471 293.386 360.398 292.801 357.761C292.217 355.125 292.76 352.584 294.431 350.139C296.102 347.694 298.783 346.062 302.474 345.244L389.876 325.867C393.567 325.049 396.686 325.395 399.234 326.905C401.782 328.414 403.348 330.488 403.932 333.124C404.517 335.761 403.973 338.301 402.303 340.747C400.632 343.192 397.951 344.823 394.26 345.642L306.858 365.018ZM507.331 476.792C509.879 478.301 512.998 478.647 516.69 477.829L604.091 458.452C607.782 457.634 610.463 456.002 612.134 453.557C613.805 451.112 614.348 448.572 613.764 445.935C613.179 443.298 611.613 441.225 609.066 439.715C606.518 438.206 603.399 437.86 599.707 438.678L512.306 458.055C508.615 458.873 505.934 460.505 504.263 462.95C502.592 465.395 502.049 467.935 502.633 470.572C503.218 473.209 504.784 475.282 507.331 476.792ZM476.409 457.092C478.957 458.602 482.076 458.948 485.767 458.129L522.547 449.975C526.238 449.157 528.919 447.525 530.59 445.08C532.261 442.635 532.804 440.094 532.22 437.458C531.635 434.821 530.069 432.748 527.522 431.238C524.974 429.729 521.855 429.383 518.163 430.201L481.384 438.355C477.692 439.173 475.011 440.805 473.34 443.25C471.67 445.695 471.126 448.236 471.711 450.872C472.295 453.509 473.862 455.582 476.409 457.092ZM577.653 434.647C580.2 436.157 583.32 436.502 587.011 435.684L623.791 427.53C627.482 426.712 630.163 425.08 631.834 422.635C633.505 420.19 634.048 417.649 633.463 415.013C632.879 412.376 631.313 410.303 628.765 408.793C626.218 407.283 623.098 406.938 619.407 407.756L582.627 415.91C578.936 416.728 576.255 418.36 574.584 420.805C572.913 423.25 572.37 425.791 572.955 428.427C573.539 431.064 575.105 433.137 577.653 434.647ZM572.041 409.336C574.589 410.846 577.708 411.191 581.4 410.373L618.18 402.219C621.871 401.401 624.552 399.769 626.223 397.324C627.893 394.879 628.437 392.338 627.852 389.702C627.268 387.065 625.702 384.992 623.154 383.482C620.606 381.973 617.487 381.627 613.796 382.445L577.016 390.599C573.325 391.417 570.644 393.049 568.973 395.494C567.302 397.939 566.759 400.48 567.343 403.116C567.928 405.753 569.494 407.826 572.041 409.336ZM490.497 400.859C493.045 402.369 496.164 402.714 499.856 401.896L587.257 382.52C590.949 381.701 593.63 380.07 595.3 377.625C596.971 375.18 597.514 372.639 596.93 370.002C596.345 367.366 594.779 365.293 592.232 363.783C589.684 362.273 586.565 361.927 582.874 362.745L495.472 382.122C491.781 382.94 489.1 384.572 487.429 387.017C485.758 389.462 485.215 392.003 485.799 394.639C486.384 397.276 487.95 399.349 490.497 400.859ZM459.575 381.159C462.123 382.669 465.242 383.015 468.933 382.197L505.713 374.043C509.405 373.224 512.086 371.593 513.756 369.148C515.427 366.703 515.97 364.162 515.386 361.525C514.801 358.889 513.235 356.815 510.688 355.306C508.14 353.796 505.021 353.45 501.33 354.268L464.55 362.422C460.858 363.241 458.177 364.872 456.507 367.317C454.836 369.762 454.293 372.303 454.877 374.94C455.462 377.576 457.028 379.649 459.575 381.159ZM453.964 355.848C456.512 357.358 459.631 357.704 463.322 356.886L500.102 348.732C503.793 347.913 506.474 346.282 508.145 343.837C509.816 341.392 510.359 338.851 509.775 336.214C509.19 333.578 507.624 331.505 505.076 329.995C502.529 328.485 499.409 328.139 495.718 328.958L458.938 337.111C455.247 337.93 452.566 339.561 450.895 342.006C449.224 344.451 448.681 346.992 449.266 349.629C449.85 352.265 451.416 354.339 453.964 355.848ZM555.208 333.403C557.755 334.913 560.875 335.259 564.566 334.44L601.346 326.287C605.037 325.468 607.718 323.837 609.389 321.392C611.06 318.946 611.603 316.406 611.018 313.769C610.434 311.133 608.868 309.059 606.32 307.55C603.772 306.04 600.653 305.694 596.962 306.512L560.182 314.666C556.491 315.485 553.81 317.116 552.139 319.561C550.468 322.006 549.925 324.547 550.509 327.184C551.094 329.82 552.66 331.893 555.208 333.403ZM473.664 324.926C476.211 326.436 479.331 326.782 483.022 325.963L570.423 306.587C574.115 305.769 576.796 304.137 578.467 301.692C580.137 299.247 580.681 296.706 580.096 294.07C579.512 291.433 577.945 289.36 575.398 287.85C572.85 286.34 569.731 285.994 566.04 286.813L478.638 306.189C474.947 307.008 472.266 308.639 470.595 311.084C468.924 313.529 468.381 316.07 468.965 318.707C469.55 321.343 471.116 323.416 473.664 324.926ZM683.495 437.737C686.043 439.247 689.162 439.593 692.853 438.774L780.255 419.398C783.946 418.579 786.627 416.948 788.298 414.503C789.969 412.058 790.512 409.517 789.928 406.88C789.343 404.244 787.777 402.171 785.229 400.661C782.682 399.151 779.562 398.805 775.871 399.624L688.47 419C684.778 419.818 682.097 421.45 680.426 423.895C678.756 426.34 678.212 428.881 678.797 431.517C679.381 434.154 680.948 436.227 683.495 437.737ZM652.573 418.037C655.121 419.547 658.24 419.893 661.931 419.075L698.711 410.921C702.402 410.102 705.083 408.471 706.754 406.026C708.425 403.581 708.968 401.04 708.384 398.403C707.799 395.767 706.233 393.694 703.685 392.184C701.138 390.674 698.018 390.328 694.327 391.147L657.547 399.3C653.856 400.119 651.175 401.75 649.504 404.195C647.833 406.641 647.29 409.181 647.875 411.818C648.459 414.454 650.025 416.528 652.573 418.037ZM753.817 395.592C756.364 397.102 759.484 397.448 763.175 396.629L799.955 388.476C803.646 387.657 806.327 386.026 807.998 383.581C809.669 381.136 810.212 378.595 809.627 375.958C809.043 373.322 807.477 371.248 804.929 369.739C802.381 368.229 799.262 367.883 795.571 368.701L758.791 376.855C755.1 377.674 752.419 379.305 750.748 381.75C749.077 384.195 748.534 386.736 749.118 389.373C749.703 392.009 751.269 394.082 753.817 395.592ZM748.205 370.281C750.753 371.791 753.872 372.137 757.563 371.319L794.343 363.165C798.035 362.346 800.716 360.715 802.386 358.27C804.057 355.825 804.6 353.284 804.016 350.647C803.431 348.011 801.865 345.938 799.318 344.428C796.77 342.918 793.651 342.572 789.96 343.39L753.18 351.544C749.488 352.363 746.807 353.994 745.137 356.439C743.466 358.884 742.923 361.425 743.507 364.062C744.092 366.698 745.658 368.772 748.205 370.281ZM666.661 361.804C669.209 363.314 672.328 363.66 676.019 362.842L763.421 343.465C767.112 342.647 769.793 341.015 771.464 338.57C773.135 336.125 773.678 333.584 773.094 330.948C772.509 328.311 770.943 326.238 768.396 324.728C765.848 323.218 762.729 322.873 759.037 323.691L671.636 343.067C667.944 343.886 665.263 345.517 663.593 347.962C661.922 350.407 661.379 352.948 661.963 355.585C662.548 358.221 664.114 360.294 666.661 361.804ZM635.739 342.105C638.287 343.614 641.406 343.96 645.097 343.142L681.877 334.988C685.568 334.17 688.249 332.538 689.92 330.093C691.591 327.648 692.134 325.107 691.55 322.471C690.965 319.834 689.399 317.761 686.852 316.251C684.304 314.741 681.185 314.396 677.493 315.214L640.713 323.368C637.022 324.186 634.341 325.818 632.67 328.263C631 330.708 630.456 333.249 631.041 335.885C631.625 338.522 633.191 340.595 635.739 342.105ZM630.128 316.794C632.675 318.304 635.795 318.649 639.486 317.831L676.266 309.677C679.957 308.859 682.638 307.227 684.309 304.782C685.98 302.337 686.523 299.796 685.938 297.16C685.354 294.523 683.788 292.45 681.24 290.94C678.693 289.43 675.573 289.085 671.882 289.903L635.102 298.057C631.411 298.875 628.73 300.507 627.059 302.952C625.388 305.397 624.845 307.938 625.43 310.574C626.014 313.211 627.58 315.284 630.128 316.794ZM731.371 294.349C733.919 295.858 737.038 296.204 740.73 295.386L777.51 287.232C781.201 286.414 783.882 284.782 785.553 282.337C787.223 279.892 787.767 277.351 787.182 274.715C786.598 272.078 785.032 270.005 782.484 268.495C779.936 266.985 776.817 266.639 773.126 267.458L736.346 275.612C732.655 276.43 729.974 278.062 728.303 280.507C726.632 282.952 726.089 285.493 726.673 288.129C727.258 290.766 728.824 292.839 731.371 294.349ZM649.827 285.872C652.375 287.381 655.494 287.727 659.186 286.909L746.587 267.532C750.278 266.714 752.96 265.082 754.63 262.637C756.301 260.192 756.844 257.652 756.26 255.015C755.675 252.378 754.109 250.305 751.562 248.795C749.014 247.286 745.895 246.94 742.203 247.758L654.802 267.135C651.111 267.953 648.43 269.585 646.759 272.03C645.088 274.475 644.545 277.016 645.129 279.652C645.714 282.289 647.28 284.362 649.827 285.872Z" fill="white"/>
<path d="M830.242 581.691C830.494 582.828 830.891 583.814 831.434 584.648C832.065 585.343 832.785 585.899 833.593 586.316C834.49 586.595 835.621 586.583 836.985 586.28L838.349 585.978C839.714 585.675 840.744 585.208 841.439 584.577C842.108 583.832 842.526 583.024 842.69 582.152C842.83 581.167 842.773 580.106 842.521 578.969L827.322 510.407C827.07 509.27 826.685 508.342 826.167 507.622C825.625 506.788 824.905 506.231 824.008 505.953C823.086 505.561 821.943 505.516 820.578 505.819L819.214 506.121C817.85 506.424 816.833 506.947 816.163 507.692C815.581 508.298 815.164 509.107 814.911 510.117C814.746 510.989 814.79 511.993 815.042 513.13L830.242 581.691Z" fill="#952CFF"/>
<path d="M416.009 600.162C415.606 598.343 415.689 596.833 416.258 595.633C416.802 594.32 418.097 593.436 420.144 592.983L421.508 592.68C423.555 592.226 425.102 592.48 426.15 593.44C427.173 594.287 427.886 595.62 428.289 597.439L436.569 634.79C436.973 636.609 436.902 638.176 436.359 639.489C435.79 640.689 434.482 641.516 432.435 641.969L431.071 642.272C429.024 642.726 427.489 642.529 426.467 641.682C425.419 640.722 424.693 639.332 424.29 637.513L416.009 600.162Z" fill="#952CFF"/>
<path d="M588.528 635.278C588.78 636.415 589.177 637.401 589.72 638.235C590.351 638.93 591.071 639.486 591.879 639.903C592.776 640.181 593.907 640.169 595.271 639.867L596.465 639.602C597.943 639.275 599.03 638.795 599.725 638.164C600.395 637.419 600.812 636.611 600.977 635.739C601.116 634.754 601.06 633.693 600.808 632.556L585.608 563.994C585.356 562.857 584.971 561.929 584.453 561.208C583.911 560.374 583.191 559.818 582.294 559.54C581.372 559.148 580.172 559.115 578.694 559.443L577.5 559.708C576.136 560.01 575.119 560.534 574.449 561.279C573.867 561.885 573.45 562.693 573.197 563.704C573.032 564.575 573.076 565.579 573.328 566.716L588.528 635.278Z" fill="#952CFF"/>
<path d="M264.754 669.839C265.132 671.544 265.846 672.877 266.893 673.838C268.055 674.773 269.602 675.027 271.535 674.598L272.9 674.296C274.946 673.842 276.242 672.958 276.785 671.645C277.329 670.331 277.412 668.822 277.034 667.116L268.754 629.766C268.325 627.833 267.599 626.443 266.577 625.596C265.554 624.749 264.019 624.553 261.973 625.006L260.608 625.309C258.675 625.737 257.367 626.564 256.685 627.789C256.116 628.989 256.045 630.555 256.474 632.488L264.754 669.839Z" fill="#952CFF"/>
<path fill-rule="evenodd" clip-rule="evenodd" d="M940.895 405.606L971.383 543.125L905.238 646.952L153.883 813.523L104.555 591.018L940.895 405.606ZM921.719 617.416L922.025 617.348L921.938 616.958C921.865 617.11 921.792 617.263 921.719 617.416ZM765.502 607.675C766.737 613.246 768.484 618.167 770.743 622.438C773.091 626.57 775.837 630.076 778.981 632.958C782.213 635.701 785.9 637.806 790.043 639.273C794.16 640.627 798.733 641.343 803.76 641.421C808.788 641.5 814.258 640.883 820.17 639.573L876.111 627.171C882.024 625.86 887.241 624.107 891.765 621.911C896.288 619.715 900.13 617.134 903.289 614.167C906.423 611.087 908.819 607.633 910.476 603.806C912.221 599.841 913.227 595.502 913.495 590.79C913.851 585.94 913.411 580.729 912.176 575.158L892.212 485.107C890.977 479.535 889.186 474.684 886.839 470.552C884.58 466.281 881.834 462.774 878.601 460.031C875.458 457.15 871.827 455.032 867.71 453.678C863.567 452.211 858.982 451.438 853.954 451.36C848.927 451.282 843.457 451.898 837.545 453.208L781.604 465.61C775.691 466.921 770.473 468.674 765.95 470.87C761.427 473.066 757.598 475.704 754.463 478.784C751.304 481.751 748.852 485.218 747.106 489.183C745.45 493.01 744.443 497.349 744.087 502.199C743.819 506.911 744.303 512.052 745.538 517.623L765.502 607.675ZM657.485 503.505C656.653 499.753 656.939 497.005 658.342 495.263C659.719 493.407 662.341 492.05 666.207 491.193L712.938 480.833C716.69 480.001 719.583 480.135 721.616 481.235C723.738 482.196 725.215 484.553 726.046 488.305L760.227 642.484C761.034 646.122 760.691 648.882 759.2 650.763C757.822 652.62 755.257 653.964 751.505 654.795L704.774 665.155C700.908 666.012 697.958 665.891 695.925 664.791C693.892 663.691 692.472 661.322 691.665 657.683L657.485 503.505ZM492.791 570.675C491.61 566.274 490.049 562.365 488.108 558.948C485.849 554.677 483.104 551.171 479.871 548.428C476.727 545.546 473.097 543.429 468.979 542.075C464.837 540.607 460.252 539.835 455.224 539.756C450.197 539.678 444.727 540.294 438.814 541.605L382.873 554.007C376.961 555.317 371.743 557.071 367.22 559.266C362.696 561.462 358.867 564.1 355.733 567.181C352.574 570.148 350.121 573.614 348.376 577.58C346.719 581.406 345.713 585.745 345.357 590.595C345.138 594.455 345.423 598.604 346.212 603.04L374.427 730.309C374.8 731.465 375.305 732.497 375.943 733.403C376.928 734.616 378.304 735.444 380.072 735.887C381.954 736.305 384.373 736.186 387.33 735.531L435.69 724.81C435.999 724.692 436.296 724.566 436.581 724.433C437.668 723.954 438.559 723.398 439.254 722.767C440.062 722.111 440.619 721.391 440.922 720.608C441.314 719.686 441.511 718.688 441.511 717.615C441.625 716.516 441.519 715.227 441.191 713.749L434.801 684.926C434.524 683.675 434.455 682.557 434.594 681.572C434.847 680.561 435.265 679.753 435.846 679.147C436.541 678.516 437.571 678.049 438.935 677.747L440.3 677.444C441.664 677.142 442.795 677.13 443.691 677.408C444.588 677.686 445.308 678.242 445.851 679.076C446.393 679.91 446.803 680.953 447.081 682.203L453.471 711.027C453.798 712.505 454.246 713.718 454.814 714.665C455.382 715.613 455.982 716.434 456.613 717.129C457.333 717.686 458.141 718.103 459.038 718.381C460.048 718.634 461.09 718.761 462.164 718.762C462.478 718.762 462.801 718.75 463.13 718.726L511.491 708.005C514.447 707.35 516.633 706.448 518.048 705.299C519.577 704.125 520.475 702.793 520.741 701.302C521.028 700.157 521.098 698.959 520.953 697.706L492.791 570.675ZM533.319 695.083C533.692 696.24 534.198 697.271 534.835 698.178C535.82 699.391 537.197 700.219 538.965 700.662C540.847 701.08 543.266 700.961 546.222 700.305L617.001 684.614C625.415 682.749 632.856 680.264 639.325 677.16C645.883 673.917 651.424 670.124 655.949 665.78C660.448 661.324 663.886 656.386 666.264 650.968C668.616 645.437 669.965 639.412 670.309 632.894C670.742 626.237 670.101 619.043 668.387 611.311L655.985 555.37C654.271 547.639 651.824 540.905 648.644 535.168C645.552 529.293 641.783 524.402 637.339 520.497C632.869 516.477 627.666 513.456 621.73 511.432C615.769 509.294 609.144 508.198 601.855 508.144C594.655 507.95 586.848 508.787 578.434 510.652L507.656 526.343C504.699 526.998 502.457 527.913 500.928 529.087C499.512 530.236 498.615 531.568 498.235 533.084C498.04 534.175 498.018 535.323 498.169 536.529L533.319 695.083ZM354.253 697.715C353.465 694.757 352.518 692.004 351.413 689.456C349.924 685.968 347.923 683.132 345.411 680.945C342.986 678.619 339.962 677.083 336.337 676.336C332.687 675.475 328.221 675.511 322.94 676.443C321.803 676.695 320.705 676.581 319.644 676.1C318.671 675.481 317.983 674.261 317.58 672.442C317.177 670.623 317.298 669.284 317.942 668.425C318.675 667.428 319.61 666.803 320.747 666.551C325.952 665.278 330.027 663.48 332.972 661.157C335.891 658.72 337.945 655.879 339.134 652.633C340.437 649.362 341.039 645.889 340.939 642.213C340.845 639.351 340.528 636.402 339.987 633.367L333.898 605.901C332.718 601.5 331.157 597.591 329.216 594.174C326.957 589.903 324.211 586.396 320.979 583.653C317.835 580.772 314.204 578.654 310.087 577.3C305.944 575.833 301.359 575.06 296.332 574.982C291.304 574.904 285.834 575.52 279.922 576.83L189.871 596.794C186.914 597.45 184.672 598.364 183.143 599.538C181.727 600.687 180.83 602.019 180.45 603.535C180.184 605.026 180.24 606.624 180.618 608.329L215.177 764.213C215.555 765.918 216.179 767.39 217.05 768.629C218.035 769.842 219.412 770.67 221.18 771.113C223.062 771.531 225.481 771.412 228.437 770.757L273.122 760.85C276.078 760.195 278.264 759.293 279.679 758.144C281.208 756.97 282.106 755.638 282.372 754.147C282.751 752.632 282.752 751.021 282.374 749.316L273.375 708.724C273.123 707.587 273.193 706.558 273.585 705.636C274.091 704.689 274.761 703.944 275.595 703.401C276.429 702.858 277.357 702.474 278.381 702.247C279.518 701.995 280.579 701.938 281.564 702.078C282.663 702.192 283.585 702.584 284.33 703.254C285.188 703.899 285.744 704.79 285.996 705.927L291.025 728.61C292.84 736.796 294.971 742.646 297.42 746.159C299.844 749.558 303.285 751.36 307.744 751.564C312.178 751.655 318.318 750.831 326.163 749.091L353.451 743.042C356.066 742.462 358.05 741.724 359.402 740.828C360.754 739.932 361.62 738.726 362 737.21C362.286 736.065 362.321 734.704 362.104 733.127L354.253 697.715ZM202.169 764.055L193.548 725.169C192.616 720.962 190.924 718.176 188.474 716.811C186.113 715.306 182.545 715.083 177.769 716.142L163.102 719.394C158.326 720.452 155.129 722.175 153.511 724.562C151.982 726.809 151.683 730.037 152.616 734.244L161.237 773.129C162.144 777.223 163.779 780.021 166.14 781.526C168.615 783.005 172.24 783.215 177.016 782.157L191.683 778.905C196.459 777.846 199.599 776.136 201.103 773.775C202.721 771.388 203.076 768.148 202.169 764.055Z" fill="#952CFF"/>
</svg>
